<?xml version="1.0" encoding="UTF-8"?>
<!DOCTYPE svg PUBLIC "-//W3C//DTD SVG 1.1//EN" "http://www.w3.org/Graphics/SVG/1.1/DTD/svg11.dtd">
<!-- Creator: CorelDRAW X7 -->
<svg xmlns="http://www.w3.org/2000/svg" xml:space="preserve" width="8.5in" height="11in" version="1.1" style="shape-rendering:geometricPrecision; text-rendering:geometricPrecision; image-rendering:optimizeQuality; fill-rule:evenodd; clip-rule:evenodd"
viewBox="0 0 8500 11000"
 xmlns:xlink="http://www.w3.org/1999/xlink">
 <defs>
  <style type="text/css">
   <![CDATA[
    .fil0 {fill:#ED3237}
    .fil2 {fill:url(#id0)}
    .fil1 {fill:url(#id1)}
   ]]>
  </style>
  <linearGradient id="id0" gradientUnits="userSpaceOnUse" x1="5101.73" y1="2093.73" x2="2045.19" y2="6283.64">
   <stop offset="0" style="stop-opacity:1; stop-color:#FEFEFE"/>
   <stop offset="1" style="stop-opacity:1; stop-color:#ED3237"/>
  </linearGradient>
  <radialGradient id="id1" gradientUnits="userSpaceOnUse" gradientTransform="matrix(1.26664 -2.36676 2.36676 1.26664 -3502 15862)" cx="6782.46" cy="715.535" r="1882.75" fx="6782.46" fy="715.535">
   <stop offset="0" style="stop-opacity:1; stop-color:#FEFEFE"/>
   <stop offset="0.501961" style="stop-opacity:1; stop-color:#ED3237"/>
   <stop offset="1" style="stop-opacity:1; stop-color:#ED3237"/>
  </radialGradient>
 </defs>
 <g id="Layer_x0020_1">
  <metadata id="CorelCorpID_0Corel-Layer"/>
  <g id="_2556388091696">
   <path class="fil0" d="M6208 6785c66,-85 141,-163 214,-248 27,-31 93,-87 49,-153 -39,-61 -111,-36 -147,7 -71,84 -140,161 -211,243 -34,40 -188,222 -215,236 -5,-236 -3,-478 -1,-714 2,-219 -146,-143 -163,-93 -15,44 -6,608 -6,702 0,179 -51,456 106,421 59,-14 170,-198 255,-265 102,41 272,360 377,240 69,-80 -57,-170 -93,-206 -36,-37 -146,-137 -165,-170zm-3200 0l0 0c61,-78 143,-173 213,-248 153,-162 -11,-244 -97,-145 -54,61 -393,458 -427,477 -6,-234 -2,-478 0,-713 0,-60 2,-116 -48,-138 -45,-20 -99,1 -115,45 -12,36 -6,616 -6,702 0,180 -51,456 105,421 55,-12 182,-203 256,-263 92,29 271,360 376,238 93,-108 -164,-239 -257,-376zm-1121 -262l0 0c144,-35 268,70 296,183 38,150 -62,276 -178,306 -321,85 -463,-407 -118,-489zm296 596l0 0c31,29 15,45 58,63 25,10 57,8 81,-7 51,-31 37,-109 38,-178 0,-138 14,-286 -37,-401 -81,-181 -329,-334 -579,-202 -339,180 -288,682 87,782 182,49 277,-36 352,-57zm2891 -595l0 0c150,-48 277,70 308,174 45,154 -63,279 -169,311 -312,95 -477,-378 -139,-485zm310 590l0 0c25,36 53,106 133,65 56,-28 43,-106 43,-182 -1,-135 14,-288 -36,-401 -83,-188 -342,-334 -586,-199 -175,97 -309,354 -157,594 55,87 146,160 257,187 150,36 244,-11 346,-64zm1272 -252l0 0c38,312 456,451 669,191 113,-139 88,-274 88,-481 0,-94 19,-201 -59,-221 -242,-62 22,499 -210,637 -154,92 -318,-18 -320,-193 -3,-200 44,-506 -120,-441 -70,27 -50,141 -50,228 0,81 -7,203 2,280zm-2450 19l0 0c14,-73 7,-198 7,-280 0,-80 20,-206 -39,-241 -41,-25 -87,-12 -109,15 -79,92 61,480 -104,602 -57,42 -142,62 -222,20 -260,-137 10,-652 -202,-649 -102,1 -82,113 -82,205 0,185 -26,358 77,488 205,258 608,162 674,-160zm178 242l0 0c17,86 162,100 168,-28l-4 -1013c-17,-97 -163,-106 -168,25l1 678c1,72 -9,281 3,338z"/>
   <path class="fil1" d="M4466 764c1333,0 2413,1080 2413,2413 0,1332 -1080,2412 -2413,2412 -1332,0 -2413,-1080 -2413,-2412 0,-1333 1081,-2413 2413,-2413z"/>
   <path class="fil2" d="M4098 3671c-412,-90 -662,-470 -591,-904 62,-380 392,-630 768,-633l137 16c321,64 583,354 599,727 0,506 -399,906 -913,794zm-858 -1462l0 0c-634,980 232,2156 1301,1916 82,-18 157,-43 232,-75 36,-17 72,-34 106,-53 66,-40 112,-70 187,-130 35,-29 44,-56 94,-61 35,9 83,172 271,158 115,-9 199,-98 224,-199l0 -110c-18,-203 -36,-401 -71,-602 -44,-256 -129,-614 -271,-821 -228,-334 -486,-476 -869,-552 -455,-69 -952,141 -1204,529zm2464 -16l0 0c-38,-196 -183,-562 -261,-752 -37,-88 -173,-299 -27,-337 123,-32 302,98 360,144 129,102 261,473 335,681 105,296 434,1658 214,1873 -138,136 -298,61 -361,-34 -53,-127 -43,-200 -49,-350l-54 -483c-31,-252 -95,-514 -157,-742z"/>
  </g>
 </g>
</svg>
