<svg width="16" height="10" viewBox="0 0 16 16" fill="none" xmlns="http://www.w3.org/2000/svg">
<path fill-rule="evenodd" clip-rule="evenodd" d="M0.0634766 8.00337C0.0634766 3.6075 3.63248 0.0385742 8.02842 0.0385742C12.4244 0.0385742 15.9934 3.6075 15.9934 8.00337C15.9934 12.3992 12.4244 15.9681 8.02842 15.9681C3.63248 15.9681 0.0634766 12.3992 0.0634766 8.00337Z" fill="#00AED6"/>
<path fill-rule="evenodd" clip-rule="evenodd" d="M3.55766 5.65786C3.69024 4.83811 4.32067 4.01836 5.15066 3.88585C5.89869 3.75457 6.64702 3.68896 7.39573 3.68896C8.14414 3.68896 8.89247 3.75457 9.64088 3.88585C10.271 3.98525 10.769 4.69535 10.8021 5.34941H5.70463C5.52211 5.34941 5.37271 5.49851 5.37271 5.68141C5.37271 5.86331 5.52211 6.0131 5.70463 6.0131H10.7358C11.768 5.97961 12.598 6.73948 12.6672 7.75543C12.7003 8.63795 12.6305 9.55702 12.4648 10.473C12.2988 11.2927 11.7547 12.0494 10.9251 12.1456C9.0964 12.375 7.23455 12.375 5.37271 12.1456C4.50991 12.0494 3.69024 11.2268 3.55766 10.3736C3.32193 8.80357 3.32193 7.23106 3.55766 5.65786ZM10.3506 8.87012V9.1658C10.3506 9.34801 10.5 9.49742 10.6829 9.49742C10.8651 9.49742 11.0145 9.34801 11.0145 9.1658V8.87012C11.1175 8.78028 11.1805 8.64808 11.1805 8.50188C11.1805 8.22693 10.9582 8.0042 10.6829 8.0042C10.4074 8.0042 10.1846 8.22693 10.1846 8.50188C10.1846 8.64808 10.248 8.78028 10.3506 8.87012Z" fill="white"/>
</svg>
