<?xml version="1.0" encoding="UTF-8"?>
<!DOCTYPE svg PUBLIC "-//W3C//DTD SVG 1.1//EN" "http://www.w3.org/Graphics/SVG/1.1/DTD/svg11.dtd">
<!-- Creator: CorelDRAW -->
<svg xmlns="http://www.w3.org/2000/svg" xml:space="preserve" width="210mm" height="297mm" version="1.1" style="shape-rendering:geometricPrecision; text-rendering:geometricPrecision; image-rendering:optimizeQuality; fill-rule:evenodd; clip-rule:evenodd"
viewBox="0 0 21000 29700"
 xmlns:xlink="http://www.w3.org/1999/xlink"
 enable-background="new 0 0 334 84"
 xmlns:dc="http://purl.org/dc/elements/1.1/"
 xmlns:cc="http://creativecommons.org/ns#"
 xmlns:rdf="http://www.w3.org/1999/02/22-rdf-syntax-ns#"
 xmlns:svg="http://www.w3.org/2000/svg"
 xmlns:sodipodi="http://sodipodi.sourceforge.net/DTD/sodipodi-0.dtd"
 xmlns:inkscape="http://www.inkscape.org/namespaces/inkscape"
 inkscape:version="0.92.3 (2405546, 2018-03-11)"
 sodipodi:docname="aeromexico.svg">
 <defs>
  <style type="text/css">
   <![CDATA[
    .fil2 {fill:blue}
    .fil4 {fill:#E6252D}
    .fil3 {fill:#F9CD09}
    .fil1 {fill:red}
    .fil0 {fill:white}
    .fil5 {fill:red;fill-rule:nonzero}
   ]]>
  </style>
 </defs>
 <g id="Layer_x0020_1">
  <metadata id="CorelCorpID_0Corel-Layer"/>
  <g id="Indomaret.cdr">
   <sodipodi:namedview pagecolor="#ffffff" bordercolor="#666666" borderopacity="1" objecttolerance="10" gridtolerance="10" guidetolerance="10" inkscape:pageopacity="0" inkscape:pageshadow="2" inkscape:window-width="1280" inkscape:window-height="1004" id="namedview198" showgrid="false" fit-margin-top="0" fit-margin-left="0" fit-margin-right="0" fit-margin-bottom="0" inkscape:zoom="8.7486948" inkscape:cx="247.11667" inkscape:cy="40.949792" inkscape:window-x="-8" inkscape:window-y="-8" inkscape:window-maximized="1" inkscape:current-layer="g3"/>
   <sodipodi:namedview id="base" pagecolor="#00ffff" bordercolor="#666666" borderopacity="1.0" inkscape:pageopacity="0" inkscape:pageshadow="2" inkscape:zoom="1.4" inkscape:cx="451.73565" inkscape:cy="-10.201303" inkscape:document-units="px" inkscape:current-layer="layer1" showgrid="false" fit-margin-left="0.3" fit-margin-top="0.3" fit-margin-right="0.3" fit-margin-bottom="0.3" units="px" inkscape:window-width="1920" inkscape:window-height="1001" inkscape:window-x="-9" inkscape:window-y="-9" inkscape:window-maximized="1"/>
   <polygon class="fil0" points="0,11114 21000,11114 21000,18586 0,18586 "/>
   <path class="fil1" d="M933 11582l19134 0c269,0 489,223 489,497l0 1534 -2394 0c-126,-1389 -6432,-1685 -7522,-1694 -1757,-13 -7807,401 -7807,1667l0 27 -2389 0 0 -1534c0,-274 220,-497 489,-497z"/>
   <path class="fil2" d="M2831 15884l-2387 0 0 -2062 2388 0c-2,646 -11,1438 -1,2062zm17725 -2062l0 2062 -2389 0c19,-644 -23,-1412 -8,-2062l2397 0z"/>
   <path class="fil3" d="M20556 16093l0 1528c0,274 -220,497 -489,497l-19134 0c-269,0 -489,-223 -489,-497l0 -1528 2403 0c295,1248 5251,1739 7731,1753 1397,8 7211,-437 7568,-1753l2410 0z"/>
   <path class="fil4" d="M10610 12284c1362,12 7196,605 7142,1341 -45,618 47,1816 0,2434 -54,716 -5821,1342 -7178,1331 -1464,-13 -7306,-497 -7330,-1397 -16,-619 0,-1680 0,-2300 0,-919 5880,-1423 7366,-1409zm-6 564l0 0c-1403,-11 -6955,328 -6955,1044 0,482 -15,1435 0,1918 22,719 5539,1006 6920,1016 1282,9 6728,-407 6779,-965 44,-481 -43,-1523 0,-2004 50,-574 -5458,-999 -6744,-1009z"/>
   <path class="fil2" d="M8286 14917c71,32 58,205 -31,386 -88,180 -219,301 -291,269 -71,-32 -58,-206 31,-387 88,-180 219,-301 291,-268zm4853 15l0 0c72,32 58,206 -30,387 -88,180 -219,301 -291,268 -71,-32 -58,-205 31,-386 88,-180 219,-301 290,-269zm2383 -51l0 0c39,30 4,143 -79,253 -82,109 -182,174 -221,144 -39,-29 -4,-143 79,-252 83,-109 182,-174 221,-145zm50 -233l0 0c-272,-21 -454,168 -550,355 -76,148 -98,360 -44,538 -79,63 -177,118 -333,149 -77,16 -120,-43 -119,-96 2,-155 19,-285 63,-430 18,-60 80,-39 101,-90 44,-105 49,-207 -90,-190 -89,10 -186,24 -189,-97 -3,-118 140,-180 119,-191 -79,-38 -146,0 -229,-29 -24,-9 -5,-62 -28,-69 -32,-11 -88,22 -106,50 -40,62 -37,118 -66,191 -25,61 -28,129 -42,193 -43,127 -317,519 -519,622 -113,57 -185,7 -150,-112 47,-158 203,-542 304,-813 -99,2 -187,10 -286,12 -11,35 -28,58 -40,92 -221,-141 -356,-87 -557,58 -150,107 -281,270 -351,465 -29,77 -44,156 -46,229 -122,45 -244,110 -353,94 -27,-4 -45,-45 -39,-71 37,-158 114,-304 162,-458 29,-98 89,-197 71,-297 -25,-135 -197,-139 -291,-90 -79,41 -140,113 -219,154 -16,9 -39,-1 -52,-13 -34,-30 -50,-78 -84,-109 -30,-28 -63,-57 -103,-65 -49,-10 -103,-6 -149,13 -97,41 -166,151 -271,161 -45,5 -16,-93 -45,-129 -70,-84 -137,-55 -219,-19 -169,74 -337,152 -505,228 17,34 31,69 42,106 67,-23 137,-53 205,-69 31,-8 69,-24 96,-7 25,16 35,56 26,84 -92,296 -215,581 -322,871 111,-2 223,-4 335,-6 101,-260 172,-535 303,-781 24,-44 93,-61 142,-52 34,7 46,57 52,91 8,42 1,88 -13,129 -70,208 -159,409 -239,613 123,-2 252,9 375,6 118,-271 165,-549 310,-806 18,-32 113,-43 148,-33 24,7 50,34 45,58 -31,145 -111,276 -148,420 -17,67 -32,140 -13,206 16,56 58,110 110,136 44,22 102,13 148,-6 174,-72 335,-172 501,-260 29,187 163,315 419,258 89,-20 138,-78 220,-117 42,134 134,188 283,127 367,-150 581,-412 853,-804 43,10 129,-15 173,-15 -47,142 -336,646 -33,798 84,42 148,28 241,11 209,-38 338,-127 438,-209 51,99 133,179 251,215 240,74 515,-53 687,-129 92,158 327,187 465,137 146,-53 277,-146 394,-248 24,-22 21,-76 -3,-97 -23,-20 -61,16 -85,34 -100,75 -301,264 -415,105 -51,-71 -17,-192 33,-328 49,-133 97,-305 145,-438 68,-5 145,2 214,-4 29,-83 42,-149 72,-233 -47,-3 -110,1 -156,-2 43,-223 135,-450 213,-674 -106,2 -194,9 -299,11 -74,217 -132,429 -232,646 -69,2 -142,9 -211,11 -18,81 -36,162 -55,243 53,-2 127,-4 179,-6 -66,254 -139,484 -288,681 -53,70 -145,110 -231,128 -263,53 -365,-32 -406,-151 111,-93 221,-138 322,-242 161,-169 359,-614 -36,-644zm-9154 -991l0 0c-418,48 -1038,94 -1392,327 -208,137 -395,400 -208,668 183,262 509,151 641,-23 -151,-20 -272,-48 -281,-156 -43,-492 406,-390 838,-531 -224,530 -426,1474 -996,1590 -415,85 -606,-98 -702,-356 -230,442 98,644 393,690 273,42 623,-129 815,-330 137,-89 273,-191 397,-306 33,-30 487,-378 445,-90 -37,254 -137,439 -213,684 112,2 224,5 336,7 82,-243 142,-495 245,-730 18,-41 66,-71 110,-77 41,-6 101,6 116,45 27,68 -11,155 -30,225 -32,116 -206,491 20,520 222,28 472,-131 604,-238 18,112 77,210 195,266 81,38 181,13 269,-7 70,-16 129,-66 193,-100 -11,162 144,143 247,94 234,-111 365,-189 525,-243 -17,-28 -31,-58 -44,-89 -115,29 -228,85 -346,76 -40,-3 -50,-75 -38,-113 165,-496 375,-975 563,-1463 -98,6 -173,6 -271,13 -77,208 -177,423 -254,631 -368,-67 -711,36 -951,494 -51,98 -87,213 -94,323 -83,54 -161,110 -259,135 -36,9 -64,-48 -58,-85 22,-123 64,-241 106,-360 28,-80 133,-316 94,-395 -67,-138 -165,-137 -265,-96 -128,52 -259,171 -328,147 -103,-35 -74,-193 -228,-175 -48,6 -98,25 -140,46 -220,109 -428,264 -638,397 202,-387 392,-903 584,-1415z"/>
   <path class="fil5" d="M9639 14459l0 0c208,0 396,85 533,221l0 0c136,137 221,325 221,532l0 1c0,207 -85,396 -221,532l0 0c-137,137 -325,222 -532,222l-1 0c-207,0 -396,-85 -532,-222 -137,-136 -222,-325 -222,-532l0 0c0,-208 85,-397 222,-533 136,-136 324,-221 532,-221l0 0zm0 92l0 0c-182,0 -348,74 -467,194 -120,120 -195,285 -195,468l0 0c0,182 75,348 195,467 119,120 285,195 467,195l1 0c182,0 347,-75 467,-195l0 0c120,-119 194,-285 194,-467l0 -1c0,-182 -74,-347 -194,-467l0 0c-120,-120 -285,-194 -468,-194z"/>
   <path class="fil1" d="M9639 14642c315,0 570,256 570,571 0,315 -255,570 -570,570 -315,0 -570,-255 -570,-570 0,-315 255,-571 570,-571zm0 118c250,0 453,203 453,453 0,250 -203,453 -453,453 -250,0 -453,-203 -453,-453 0,-250 203,-453 453,-453z"/>
   <path class="fil1" d="M9639 14871c189,0 342,153 342,342 0,189 -153,342 -342,342 -189,0 -342,-153 -342,-342 0,-189 153,-342 342,-342z"/>
  </g>
 </g>
</svg>
