<?xml version="1.0" encoding="utf-8"?>
<!-- Generator: Adobe Illustrator 26.5.0, SVG Export Plug-In . SVG Version: 6.00 Build 0)  -->
<svg version="1.1" id="Layer_1" xmlns="http://www.w3.org/2000/svg" xmlns:xlink="http://www.w3.org/1999/xlink" x="0px" y="0px"
	 viewBox="0 0 200 80" style="enable-background:new 0 0 200 80;" xml:space="preserve">
<style type="text/css">
	.st0{opacity:0.5;}
	.st1{fill:#151634;}
	.st2{fill:#E01516;}
	.st3{fill:#DF1717;}
	.st4{fill:#DDDDDD;}
	.st5{fill:#FFFFFF;}
</style>
<g>
	<g>
		<path class="st5" d="M26.28,58.35c-6.25-0.42-12.86-2.07-18.03-7.04c-3.21-3.08-5.19-7.08-6.07-11.51
			c-0.32-1.61,2.25-4.05,3.94-3.93c1.08,0.08,0.87,0.87,1.01,1.49c1.08,4.69,3.48,8.74,7.2,11.61c6.11,4.71,16.3,6.61,24.37,1.54
			c0.31-0.2,0.54-0.53,0.81-0.8c0.92-0.96,1.94-1.7,3.01-0.28c0.96,1.27,1.05,2.44-0.38,3.68C37.76,56.87,32.62,58.24,26.28,58.35z"
			/>
		<path class="st2" d="M8.66,33.96c0.18-6.22,2.41-10.4,6.62-13.6c1.23-0.94,2.19-0.62,3.29,0.17c1.15,0.82,1.07,1.48,0.03,2.31
			c-1.54,1.23-3.03,2.48-3.95,4.34C10.79,35,12.9,42.53,20.37,47.15c0.69,0.42,1.12,0.93,0.66,1.66c-0.53,0.85-1.21,1.58-2.41,1
			c-4.35-2.09-7.21-5.51-8.62-10.05C9.33,37.61,8.4,35.43,8.66,33.96z"/>
		<path class="st3" d="M26.91,23.02c0.86-0.06,2.27,0.12,3.62,0.79c1.11,0.55,1.45,1.49,1.03,2.47c-0.43,1-1.32,0.31-2,0.11
			c-6.65-1.94-13.43,4.22-12.13,11.03c0.12,0.62,1.06,1.48-0.35,1.76c-1.14,0.22-1.7-0.44-1.92-1.48c-0.56-2.62-0.49-5.25,0.8-7.6
			C18.19,26.04,21.18,22.95,26.91,23.02z"/>
	</g>
	<g>
		<path class="st5" d="M27.92,31.12h6.16c1.34,0,2.35,0.32,3.02,0.96c0.67,0.64,1,1.55,1,2.73c0,1.21-0.36,2.16-1.09,2.84
			c-0.73,0.68-1.84,1.02-3.33,1.02h-2.03v4.45h-3.72V31.12z M31.64,36.23h0.91c0.71,0,1.22-0.12,1.51-0.37
			c0.29-0.25,0.43-0.57,0.43-0.95c0-0.38-0.12-0.7-0.38-0.96c-0.25-0.26-0.72-0.39-1.42-0.39h-1.06V36.23z"/>
		<path class="st5" d="M40.03,31.12h9.93v2.56h-6.22v1.91h5.77v2.45h-5.77v2.37h6.4v2.72H40.03V31.12z"/>
		<path class="st5" d="M52.14,31.12h3.71v9.04h5.79v2.95h-9.49V31.12z"/>
		<path class="st5" d="M70.7,41.13h-4.21l-0.58,1.98h-3.79l4.51-12h4.04l4.51,12h-3.88L70.7,41.13z M69.93,38.54l-1.32-4.31
			l-1.31,4.31H69.93z"/>
		<path class="st5" d="M76.38,31.12h3.46l4.52,6.64v-6.64h3.49v12h-3.49l-4.49-6.59v6.59h-3.49V31.12z"/>
		<path class="st5" d="M96.35,38.77v-2.5h5.73v5.12c-1.1,0.75-2.07,1.26-2.91,1.53s-1.84,0.41-3,0.41c-1.42,0-2.58-0.24-3.48-0.73
			c-0.9-0.49-1.59-1.21-2.09-2.17s-0.74-2.06-0.74-3.31c0-1.31,0.27-2.45,0.81-3.42c0.54-0.97,1.33-1.7,2.37-2.21
			c0.81-0.39,1.91-0.58,3.28-0.58c1.33,0,2.32,0.12,2.97,0.36s1.2,0.61,1.64,1.12c0.43,0.5,0.76,1.14,0.98,1.92l-3.58,0.64
			c-0.15-0.45-0.4-0.8-0.75-1.04c-0.35-0.24-0.8-0.36-1.35-0.36c-0.81,0-1.46,0.28-1.94,0.85s-0.72,1.46-0.72,2.68
			c0,1.3,0.24,2.23,0.73,2.78c0.49,0.56,1.17,0.83,2.04,0.83c0.42,0,0.81-0.06,1.19-0.18c0.38-0.12,0.81-0.32,1.29-0.61v-1.13H96.35
			z"/>
		<path class="st5" d="M104.43,31.12h3.71v12h-3.71V31.12z"/>
		<path class="st5" d="M115.55,31.12h11.27v2.96h-3.78v9.03h-3.71v-9.03h-3.78V31.12z"/>
		<path class="st5" d="M128.49,31.12h9.93v2.56h-6.22v1.91h5.77v2.45h-5.77v2.37h6.4v2.72h-10.11V31.12z"/>
		<path class="st5" d="M140.61,31.12h3.71v4.53l3.88-4.53h4.93l-4.38,4.53l4.57,7.47h-4.56l-2.53-4.93l-1.92,2.01v2.93h-3.71V31.12z
			"/>
		<path class="st5" d="M154.58,31.12h3.46l4.52,6.64v-6.64h3.49v12h-3.49l-4.49-6.59v6.59h-3.49V31.12z"/>
		<path class="st5" d="M168.67,31.12h3.71v12h-3.71V31.12z"/>
		<path class="st5" d="M175.06,31.12h3.71v4.53l3.88-4.53h4.93l-4.38,4.53l4.57,7.47h-4.56l-2.53-4.93l-1.92,2.01v2.93h-3.71V31.12z
			"/>
	</g>
	<g>
		<path class="st5" d="M53.18,47.11h5.52v1.45h-1.85v4.43h-1.82v-4.43h-1.85V47.11z"/>
		<path class="st5" d="M58.66,50.87c0-0.65,0.22-1.19,0.66-1.61c0.44-0.42,1.03-0.63,1.78-0.63c0.85,0,1.5,0.25,1.93,0.74
			c0.35,0.4,0.53,0.89,0.53,1.47c0,0.66-0.22,1.19-0.65,1.61c-0.43,0.42-1.04,0.63-1.8,0.63c-0.68,0-1.24-0.17-1.66-0.52
			C58.92,52.14,58.66,51.57,58.66,50.87z M60.29,50.87c0,0.38,0.08,0.66,0.23,0.84c0.15,0.18,0.35,0.27,0.58,0.27
			c0.24,0,0.43-0.09,0.58-0.27c0.15-0.18,0.23-0.47,0.23-0.86c0-0.37-0.08-0.64-0.23-0.82c-0.15-0.18-0.34-0.27-0.57-0.27
			c-0.24,0-0.43,0.09-0.59,0.27S60.29,50.49,60.29,50.87z"/>
		<path class="st5" d="M64.14,50.87c0-0.65,0.22-1.19,0.66-1.61c0.44-0.42,1.03-0.63,1.78-0.63c0.85,0,1.5,0.25,1.93,0.74
			c0.35,0.4,0.53,0.89,0.53,1.47c0,0.66-0.22,1.19-0.65,1.61c-0.43,0.42-1.04,0.63-1.8,0.63c-0.68,0-1.24-0.17-1.66-0.52
			C64.4,52.14,64.14,51.57,64.14,50.87z M65.77,50.87c0,0.38,0.08,0.66,0.23,0.84c0.15,0.18,0.35,0.27,0.58,0.27
			c0.24,0,0.43-0.09,0.58-0.27c0.15-0.18,0.23-0.47,0.23-0.86c0-0.37-0.08-0.64-0.23-0.82c-0.15-0.18-0.34-0.27-0.57-0.27
			c-0.24,0-0.43,0.09-0.59,0.27S65.77,50.49,65.77,50.87z"/>
		<path class="st5" d="M69.87,47.11h1.64v5.88h-1.64V47.11z"/>
		<path class="st5" d="M72.27,51.81l1.62-0.15c0.07,0.19,0.16,0.33,0.28,0.41c0.12,0.08,0.28,0.12,0.48,0.12
			c0.22,0,0.39-0.05,0.51-0.14c0.09-0.07,0.14-0.16,0.14-0.26c0-0.12-0.06-0.21-0.18-0.27c-0.09-0.05-0.32-0.1-0.7-0.17
			c-0.57-0.1-0.96-0.19-1.18-0.27c-0.22-0.08-0.41-0.23-0.56-0.43c-0.15-0.2-0.23-0.43-0.23-0.69c0-0.28,0.08-0.52,0.25-0.73
			s0.39-0.35,0.67-0.46c0.29-0.1,0.67-0.15,1.15-0.15c0.51,0,0.88,0.04,1.12,0.12s0.44,0.2,0.61,0.36c0.16,0.16,0.3,0.38,0.4,0.66
			l-1.55,0.15c-0.04-0.14-0.11-0.24-0.2-0.3c-0.13-0.09-0.28-0.13-0.46-0.13c-0.18,0-0.32,0.03-0.4,0.1s-0.13,0.15-0.13,0.24
			c0,0.1,0.05,0.18,0.16,0.24c0.11,0.05,0.34,0.1,0.7,0.14c0.54,0.06,0.95,0.15,1.21,0.26c0.26,0.11,0.47,0.27,0.61,0.47
			c0.14,0.2,0.21,0.43,0.21,0.67c0,0.25-0.07,0.48-0.22,0.72s-0.38,0.42-0.7,0.56c-0.32,0.14-0.75,0.21-1.31,0.21
			c-0.78,0-1.33-0.11-1.66-0.33C72.57,52.53,72.36,52.22,72.27,51.81z"/>
		<path class="st5" d="M77.58,51.37h1.75v1.34c0,0.49-0.1,0.89-0.31,1.17s-0.56,0.54-1.05,0.76l-0.38-0.71
			c0.31-0.14,0.52-0.29,0.64-0.43c0.12-0.14,0.18-0.31,0.19-0.51h-0.83V51.37z"/>
		<path class="st5" d="M83.15,47.11h4.87v1.26h-3.05v0.93h2.83v1.2h-2.83v1.16h3.14v1.33h-4.96V47.11z"/>
		<path class="st5" d="M93.47,54.61h-1.65v-2.03c-0.16,0.17-0.34,0.3-0.55,0.38c-0.21,0.09-0.44,0.13-0.69,0.13
			c-0.52,0-0.95-0.19-1.29-0.56c-0.34-0.37-0.51-0.91-0.51-1.6c0-0.47,0.08-0.88,0.23-1.23c0.16-0.36,0.37-0.62,0.65-0.8
			s0.58-0.26,0.91-0.26c0.29,0,0.55,0.06,0.79,0.19c0.18,0.09,0.37,0.27,0.58,0.54v-0.63h1.53V54.61z M91.83,50.87
			c0-0.37-0.07-0.63-0.21-0.79s-0.31-0.24-0.52-0.24c-0.2,0-0.36,0.08-0.49,0.24c-0.13,0.16-0.2,0.43-0.2,0.81
			c0,0.34,0.06,0.59,0.19,0.74s0.29,0.23,0.48,0.23c0.22,0,0.4-0.08,0.54-0.25C91.76,51.46,91.83,51.21,91.83,50.87z"/>
		<path class="st5" d="M98.95,52.99h-1.52V52.3c-0.23,0.28-0.46,0.49-0.69,0.61c-0.23,0.12-0.52,0.18-0.85,0.18
			c-0.45,0-0.8-0.13-1.06-0.4c-0.25-0.27-0.38-0.68-0.38-1.24v-2.71h1.64v2.34c0,0.27,0.05,0.46,0.15,0.57
			c0.1,0.11,0.24,0.17,0.42,0.17c0.2,0,0.36-0.08,0.48-0.23c0.12-0.15,0.19-0.42,0.19-0.81v-2.05h1.63V52.99z"/>
		<path class="st5" d="M100,47.11h1.63v1.11H100V47.11z M100,48.73h1.63v4.26H100V48.73z"/>
		<path class="st5" d="M102.69,54.61v-5.88h1.53v0.63c0.21-0.27,0.4-0.44,0.58-0.54c0.24-0.13,0.5-0.19,0.79-0.19
			c0.57,0,1.01,0.22,1.32,0.65s0.47,0.97,0.47,1.62c0,0.71-0.17,1.25-0.51,1.62s-0.77,0.56-1.29,0.56c-0.25,0-0.48-0.04-0.69-0.13
			c-0.21-0.09-0.39-0.21-0.56-0.38v2.03H102.69z M104.32,50.87c0,0.34,0.07,0.59,0.21,0.75c0.14,0.16,0.32,0.25,0.54,0.25
			c0.19,0,0.35-0.08,0.48-0.23c0.13-0.16,0.19-0.42,0.19-0.8c0-0.34-0.07-0.6-0.2-0.76c-0.13-0.16-0.3-0.24-0.49-0.24
			c-0.21,0-0.38,0.08-0.52,0.24S104.32,50.51,104.32,50.87z"/>
		<path class="st5" d="M108.17,48.73h1.52v0.62c0.22-0.26,0.44-0.44,0.66-0.55c0.22-0.11,0.49-0.16,0.81-0.16
			c0.34,0,0.61,0.06,0.81,0.18c0.2,0.12,0.36,0.3,0.49,0.54c0.26-0.28,0.49-0.47,0.7-0.57c0.21-0.1,0.47-0.15,0.78-0.15
			c0.46,0,0.81,0.14,1.07,0.41c0.26,0.27,0.38,0.7,0.38,1.27v2.68h-1.64v-2.43c0-0.19-0.04-0.34-0.11-0.43
			c-0.11-0.15-0.25-0.22-0.41-0.22c-0.19,0-0.35,0.07-0.46,0.21s-0.18,0.36-0.18,0.67v2.2h-1.64v-2.35c0-0.19-0.01-0.31-0.03-0.38
			c-0.04-0.11-0.1-0.19-0.18-0.26c-0.09-0.07-0.19-0.1-0.3-0.1c-0.19,0-0.34,0.07-0.46,0.21c-0.12,0.14-0.18,0.37-0.18,0.7v2.17
			h-1.64V48.73z"/>
		<path class="st5" d="M121.1,51.27h-3.27c0.03,0.26,0.1,0.46,0.21,0.59c0.16,0.18,0.36,0.28,0.62,0.28c0.16,0,0.31-0.04,0.46-0.12
			c0.09-0.05,0.18-0.14,0.29-0.27l1.61,0.15c-0.25,0.43-0.54,0.73-0.89,0.92c-0.35,0.19-0.85,0.28-1.5,0.28
			c-0.56,0-1.01-0.08-1.33-0.24c-0.32-0.16-0.59-0.41-0.8-0.76c-0.21-0.35-0.32-0.75-0.32-1.22c0-0.67,0.21-1.21,0.64-1.62
			c0.43-0.41,1.02-0.62,1.77-0.62c0.61,0,1.09,0.09,1.44,0.28c0.35,0.18,0.62,0.45,0.81,0.8c0.18,0.35,0.28,0.81,0.28,1.37V51.27z
			 M119.44,50.48c-0.03-0.32-0.12-0.54-0.25-0.68c-0.14-0.14-0.32-0.2-0.54-0.2c-0.26,0-0.47,0.1-0.62,0.31
			c-0.1,0.13-0.16,0.32-0.19,0.57H119.44z"/>
		<path class="st5" d="M121.85,48.73h1.52v0.69c0.23-0.28,0.46-0.49,0.69-0.61c0.23-0.12,0.52-0.18,0.85-0.18
			c0.45,0,0.81,0.13,1.06,0.4c0.26,0.27,0.38,0.68,0.38,1.25v2.71h-1.64v-2.34c0-0.27-0.05-0.46-0.15-0.57
			c-0.1-0.11-0.24-0.17-0.42-0.17c-0.2,0-0.36,0.08-0.48,0.23c-0.12,0.15-0.18,0.42-0.18,0.81v2.05h-1.63V48.73z"/>
		<path class="st5" d="M129.3,47.11v1.62h0.9v1.2h-0.9v1.51c0,0.18,0.02,0.3,0.05,0.36c0.05,0.09,0.15,0.14,0.28,0.14
			c0.12,0,0.29-0.03,0.51-0.1l0.12,1.13c-0.4,0.09-0.78,0.13-1.13,0.13c-0.41,0-0.71-0.05-0.9-0.16c-0.19-0.1-0.33-0.26-0.43-0.47
			c-0.09-0.21-0.14-0.56-0.14-1.03v-1.5h-0.6v-1.2h0.6v-0.78L129.3,47.11z"/>
		<path class="st5" d="M130.69,51.81l1.62-0.15c0.07,0.19,0.16,0.33,0.28,0.41c0.12,0.08,0.28,0.12,0.48,0.12
			c0.22,0,0.39-0.05,0.51-0.14c0.09-0.07,0.14-0.16,0.14-0.26c0-0.12-0.06-0.21-0.18-0.27c-0.09-0.05-0.32-0.1-0.7-0.17
			c-0.57-0.1-0.96-0.19-1.18-0.27c-0.22-0.08-0.41-0.23-0.56-0.43c-0.15-0.2-0.23-0.43-0.23-0.69c0-0.28,0.08-0.52,0.25-0.73
			s0.39-0.35,0.67-0.46c0.29-0.1,0.67-0.15,1.15-0.15c0.51,0,0.88,0.04,1.12,0.12s0.44,0.2,0.61,0.36c0.16,0.16,0.3,0.38,0.4,0.66
			l-1.55,0.15c-0.04-0.14-0.11-0.24-0.2-0.3c-0.13-0.09-0.28-0.13-0.46-0.13c-0.18,0-0.32,0.03-0.4,0.1s-0.13,0.15-0.13,0.24
			c0,0.1,0.05,0.18,0.16,0.24c0.11,0.05,0.34,0.1,0.7,0.14c0.54,0.06,0.95,0.15,1.21,0.26c0.26,0.11,0.47,0.27,0.61,0.47
			c0.14,0.2,0.21,0.43,0.21,0.67c0,0.25-0.07,0.48-0.22,0.72s-0.38,0.42-0.7,0.56c-0.32,0.14-0.75,0.21-1.31,0.21
			c-0.78,0-1.33-0.11-1.66-0.33C130.99,52.53,130.78,52.22,130.69,51.81z"/>
		<path class="st5" d="M136,51.37h1.75v1.34c0,0.49-0.1,0.89-0.31,1.17s-0.56,0.54-1.05,0.76L136,53.93
			c0.31-0.14,0.52-0.29,0.64-0.43c0.12-0.14,0.18-0.31,0.19-0.51H136V51.37z"/>
		<path class="st5" d="M141.56,47.11h2.39l0.92,3.58l0.92-3.58h2.39v5.88h-1.49v-4.48l-1.15,4.48h-1.35l-1.14-4.48v4.48h-1.49V47.11
			z"/>
		<path class="st5" d="M150.72,50.11l-1.56-0.16c0.06-0.27,0.14-0.49,0.25-0.64c0.11-0.16,0.27-0.29,0.48-0.41
			c0.15-0.08,0.36-0.15,0.62-0.19c0.26-0.05,0.54-0.07,0.85-0.07c0.49,0,0.88,0.03,1.18,0.08s0.54,0.17,0.74,0.34
			c0.14,0.12,0.25,0.29,0.33,0.51s0.12,0.43,0.12,0.63v1.88c0,0.2,0.01,0.36,0.04,0.47c0.03,0.11,0.08,0.26,0.17,0.44h-1.53
			c-0.06-0.11-0.1-0.19-0.12-0.25c-0.02-0.06-0.04-0.15-0.06-0.27c-0.21,0.21-0.43,0.35-0.64,0.44c-0.29,0.12-0.62,0.18-1.01,0.18
			c-0.51,0-0.89-0.12-1.16-0.35c-0.26-0.24-0.4-0.53-0.4-0.87c0-0.32,0.09-0.59,0.29-0.8c0.19-0.21,0.54-0.36,1.05-0.47
			c0.61-0.12,1.01-0.21,1.19-0.26c0.18-0.05,0.37-0.11,0.58-0.19c0-0.2-0.04-0.34-0.12-0.42c-0.08-0.08-0.23-0.12-0.44-0.12
			c-0.27,0-0.47,0.04-0.6,0.13C150.87,49.8,150.78,49.93,150.72,50.11z M152.13,50.97c-0.22,0.08-0.46,0.15-0.7,0.21
			c-0.33,0.09-0.54,0.17-0.63,0.26c-0.09,0.09-0.14,0.19-0.14,0.3c0,0.13,0.04,0.23,0.13,0.31c0.09,0.08,0.22,0.12,0.39,0.12
			c0.18,0,0.35-0.04,0.51-0.13c0.16-0.09,0.27-0.2,0.33-0.32s0.1-0.29,0.1-0.5V50.97z"/>
		<path class="st5" d="M157.89,51.32l1.55,0.18c-0.08,0.32-0.23,0.6-0.42,0.84s-0.44,0.42-0.75,0.55c-0.3,0.13-0.69,0.2-1.16,0.2
			c-0.45,0-0.83-0.04-1.13-0.13c-0.3-0.08-0.56-0.22-0.78-0.41c-0.22-0.19-0.39-0.41-0.51-0.66s-0.18-0.59-0.18-1.01
			c0-0.44,0.08-0.8,0.22-1.09c0.11-0.21,0.26-0.41,0.45-0.57c0.19-0.17,0.38-0.3,0.59-0.38c0.32-0.13,0.73-0.2,1.22-0.2
			c0.7,0,1.23,0.12,1.59,0.37c0.36,0.25,0.62,0.61,0.77,1.09l-1.54,0.2c-0.05-0.18-0.14-0.32-0.26-0.41s-0.3-0.14-0.51-0.14
			c-0.27,0-0.49,0.1-0.66,0.29c-0.17,0.19-0.25,0.49-0.25,0.88c0,0.35,0.08,0.62,0.25,0.8c0.17,0.18,0.38,0.27,0.63,0.27
			c0.21,0,0.39-0.05,0.54-0.16C157.7,51.72,157.81,51.55,157.89,51.32z"/>
		<path class="st5" d="M160.05,47.11h1.63v2.17c0.22-0.23,0.44-0.39,0.66-0.49c0.22-0.1,0.48-0.15,0.78-0.15
			c0.44,0,0.79,0.13,1.05,0.4c0.26,0.27,0.38,0.69,0.38,1.24v2.71h-1.64v-2.34c0-0.27-0.05-0.46-0.15-0.57
			c-0.1-0.11-0.24-0.17-0.42-0.17c-0.2,0-0.36,0.08-0.48,0.23c-0.12,0.15-0.18,0.42-0.18,0.81v2.05h-1.63V47.11z"/>
		<path class="st5" d="M165.59,47.11h1.63v1.11h-1.63V47.11z M165.59,48.73h1.63v4.26h-1.63V48.73z"/>
		<path class="st5" d="M168.26,48.73h1.52v0.69c0.23-0.28,0.46-0.49,0.69-0.61c0.23-0.12,0.52-0.18,0.85-0.18
			c0.45,0,0.81,0.13,1.06,0.4c0.26,0.27,0.38,0.68,0.38,1.25v2.71h-1.64v-2.34c0-0.27-0.05-0.46-0.15-0.57
			c-0.1-0.11-0.24-0.17-0.42-0.17c-0.2,0-0.36,0.08-0.48,0.23c-0.12,0.15-0.18,0.42-0.18,0.81v2.05h-1.63V48.73z"/>
		<path class="st5" d="M178.47,51.27h-3.27c0.03,0.26,0.1,0.46,0.21,0.59c0.16,0.18,0.36,0.28,0.62,0.28c0.16,0,0.31-0.04,0.46-0.12
			c0.09-0.05,0.18-0.14,0.29-0.27l1.61,0.15c-0.25,0.43-0.54,0.73-0.89,0.92c-0.35,0.19-0.85,0.28-1.5,0.28
			c-0.56,0-1.01-0.08-1.33-0.24c-0.32-0.16-0.59-0.41-0.8-0.76c-0.21-0.35-0.32-0.75-0.32-1.22c0-0.67,0.21-1.21,0.64-1.62
			c0.43-0.41,1.02-0.62,1.77-0.62c0.61,0,1.09,0.09,1.44,0.28c0.35,0.18,0.62,0.45,0.81,0.8c0.18,0.35,0.28,0.81,0.28,1.37V51.27z
			 M176.81,50.48c-0.03-0.32-0.12-0.54-0.25-0.68c-0.14-0.14-0.32-0.2-0.54-0.2c-0.26,0-0.47,0.1-0.62,0.31
			c-0.1,0.13-0.16,0.32-0.19,0.57H176.81z"/>
		<path class="st5" d="M179.24,48.73h1.53v0.7c0.15-0.3,0.3-0.51,0.46-0.62s0.35-0.17,0.58-0.17c0.24,0,0.5,0.07,0.79,0.22
			l-0.51,1.16c-0.19-0.08-0.34-0.12-0.46-0.12c-0.21,0-0.38,0.09-0.5,0.26c-0.17,0.25-0.25,0.71-0.25,1.4v1.43h-1.64V48.73z"/>
		<path class="st5" d="M182.88,48.73h1.72l0.88,2.84l0.82-2.84h1.61l-1.69,4.55c-0.19,0.52-0.39,0.87-0.59,1.05
			c-0.28,0.26-0.71,0.39-1.29,0.39c-0.24,0-0.6-0.03-1.09-0.1l-0.13-1.14c0.24,0.07,0.5,0.11,0.79,0.11c0.19,0,0.35-0.04,0.47-0.13
			c0.12-0.09,0.22-0.25,0.3-0.47L182.88,48.73z"/>
	</g>
</g>
</svg>
