<?xml version="1.0" encoding="UTF-8"?>
<svg version="1.1" xmlns="http://www.w3.org/2000/svg" width="817" height="334">
<path d="M0 0 C0.1451001 0.53254395 0.2902002 1.06508789 0.43969727 1.61376953 C5.07095476 18.38155571 10.72464161 32.42479414 22 46 C22.52851562 46.64324219 23.05703125 47.28648437 23.6015625 47.94921875 C37.73757665 63.49883432 61.6414235 73.00516178 82.29321289 74.12426758 C103.60228425 74.79859207 125.42991179 71.59833331 141.8125 56.625 C143.85988544 54.82157871 144.91607949 54.02660894 147.5625 53.1875 C151.66061775 54.55353925 153.9388888 57.26679528 156 61 C156.77073217 64.1860548 156.77958526 66.81518271 156 70 C154.125 72.5625 154.125 72.5625 151 75 C150.35289062 75.59296875 149.70578125 76.1859375 149.0390625 76.796875 C130.45938548 93.15713668 103.30057647 98.28639115 79.18505859 97.15234375 C48.59445907 95.01954664 19.04622706 83.90001338 -1.64794922 60.61816406 C-12.05811091 48.15905397 -21.984938 29.85365934 -21.4140625 13.32421875 C-20.44523175 7.88597069 -17.12831207 4.85751717 -12.875 1.625 C-8.06408094 -1.09421512 -5.37641299 -0.91297579 0 0 Z " fill="#152F66" transform="translate(25,156)"/>
<path d="M0 0 C2.67092613 1.44537772 3.91921175 2.65244402 6 5 C6.59765625 7.25390625 6.59765625 7.25390625 6 10 C3.87035977 12.50763856 1.37802408 14.56188365 -1.125 16.6875 C-15.25385601 29.32097814 -20.7989196 45.10660304 -22.3125 63.875 C-21.65006261 81.6872054 -13.62048985 95.96063129 -0.9296875 107.95703125 C2.37754524 110.93354072 5.79588996 113.57198514 9.4375 116.125 C11.82510329 117.90862459 12.90734727 118.8235186 14.3125 121.5 C13.92355117 124.61159066 12.72655579 126.55228904 10.56640625 128.8125 C8.50611182 130.37441897 6.72241095 130.88757844 4.140625 130.640625 C-10.07596775 126.38602425 -22.78089349 113.36336518 -29.83984375 100.69921875 C-31.77063609 96.88313216 -33.42347417 92.97375901 -35 89 C-35.29213379 88.27103516 -35.58426758 87.54207031 -35.88525391 86.79101562 C-43.27674394 67.77149957 -43.13931902 48.79781008 -35.6875 29.6875 C-30.10252385 17.17516471 -16.34919554 -5.84774597 0 0 Z " fill="#E01516" transform="translate(73,87)"/>
<path d="M0 0 C5.28 0 10.56 0 16 0 C19.72158972 3.87883999 21.5415229 6.42670388 24 11 C25.18809327 12.88897582 26.40966524 14.75243912 27.64086914 16.61352539 C29.45925473 19.38830275 31.22429588 22.19771693 33 25 C33.33 16.75 33.66 8.5 34 0 C39.28 0 44.56 0 50 0 C50 17.16 50 34.32 50 52 C44.72 52 39.44 52 34 52 C30.27841028 48.12116001 28.4584771 45.57329612 26 41 C24.81190673 39.11102418 23.59033476 37.24756088 22.35913086 35.38647461 C20.54074527 32.61169725 18.77570412 29.80228307 17 27 C16.67 35.25 16.34 43.5 16 52 C10.72 52 5.44 52 0 52 C0 34.84 0 17.68 0 0 Z " fill="#152F66" transform="translate(659,135)"/>
<path d="M0 0 C5.28 0 10.56 0 16 0 C19.72158972 3.87883999 21.5415229 6.42670388 24 11 C25.18809327 12.88897582 26.40966524 14.75243912 27.64086914 16.61352539 C29.45925473 19.38830275 31.22429588 22.19771693 33 25 C33.33 16.75 33.66 8.5 34 0 C39.28 0 44.56 0 50 0 C50 17.16 50 34.32 50 52 C44.72 52 39.44 52 34 52 C30.27841028 48.12116001 28.4584771 45.57329612 26 41 C24.81190673 39.11102418 23.59033476 37.24756088 22.35913086 35.38647461 C20.54074527 32.61169725 18.77570412 29.80228307 17 27 C16.67 35.25 16.34 43.5 16 52 C10.72 52 5.44 52 0 52 C0 34.84 0 17.68 0 0 Z " fill="#152F66" transform="translate(323,135)"/>
<path d="M0 0 C5.61 0 11.22 0 17 0 C17.495 7.92 17.495 7.92 18 16 C19.5675 14.288125 21.135 12.57625 22.75 10.8125 C24.07257812 9.36810547 24.07257812 9.36810547 25.421875 7.89453125 C28.04255034 5.15328322 28.04255034 5.15328322 29.625 2.15625 C33.57401939 -1.42904392 38.13488987 -0.52346584 43.25 -0.3125 C44.28125 -0.28994141 45.3125 -0.26738281 46.375 -0.24414062 C48.91814065 -0.18527163 51.45833113 -0.10310065 54 0 C50.36562243 5.05764154 46.60702007 9.67631216 42.125 14 C41.62742187 14.48855469 41.12984375 14.97710937 40.6171875 15.48046875 C39.41613046 16.65842854 38.20876441 17.82995047 37 19 C38.46472957 23.03474872 40.41424305 26.4744184 42.6953125 30.10546875 C43.04761932 30.67074783 43.39992615 31.23602692 43.76290894 31.81843567 C45.26046557 34.2212671 46.7672148 36.61828245 48.27392578 39.01538086 C49.3763692 40.77232603 50.47350288 42.53250309 51.5703125 44.29296875 C52.22789551 45.3399292 52.88547852 46.38688965 53.56298828 47.46557617 C55 50 55 50 55 52 C51.77206203 52.23329086 48.54628768 52.37467674 45.3125 52.5 C44.40048828 52.56703125 43.48847656 52.6340625 42.54882812 52.703125 C39.82688714 52.78230874 37.62505885 52.73698703 35 52 C32.601995 49.65097703 31.34581925 47.04604348 30 44 C29.47792969 43.04351562 28.95585938 42.08703125 28.41796875 41.1015625 C28.01191406 40.28429687 27.60585938 39.46703125 27.1875 38.625 C26.55908203 37.37589844 26.55908203 37.37589844 25.91796875 36.1015625 C25 34 25 34 25 32 C24.21625 32.78375 23.4325 33.5675 22.625 34.375 C21.08333333 35.91666667 19.54166667 37.45833333 18 39 C17.53513282 42.12196336 17.53513282 42.12196336 17.375 45.625 C17.25125 47.72875 17.1275 49.8325 17 52 C11.39 52 5.78 52 0 52 C0 34.84 0 17.68 0 0 Z " fill="#152F66" transform="translate(747,135)"/>
<path d="M0 0 C5.61 0 11.22 0 17 0 C17.495 7.92 17.495 7.92 18 16 C19.5675 14.288125 21.135 12.57625 22.75 10.8125 C24.07257812 9.36810547 24.07257812 9.36810547 25.421875 7.89453125 C28.04255034 5.15328322 28.04255034 5.15328322 29.625 2.15625 C33.57401939 -1.42904392 38.13488987 -0.52346584 43.25 -0.3125 C44.28125 -0.28994141 45.3125 -0.26738281 46.375 -0.24414062 C48.91814065 -0.18527163 51.45833113 -0.10310065 54 0 C50.36562243 5.05764154 46.60702007 9.67631216 42.125 14 C41.62742187 14.48855469 41.12984375 14.97710937 40.6171875 15.48046875 C39.41613046 16.65842854 38.20876441 17.82995047 37 19 C38.46472957 23.03474872 40.41424305 26.4744184 42.6953125 30.10546875 C43.04761932 30.67074783 43.39992615 31.23602692 43.76290894 31.81843567 C45.26046557 34.2212671 46.7672148 36.61828245 48.27392578 39.01538086 C49.3763692 40.77232603 50.47350288 42.53250309 51.5703125 44.29296875 C52.22789551 45.3399292 52.88547852 46.38688965 53.56298828 47.46557617 C55 50 55 50 55 52 C51.77206203 52.23329086 48.54628768 52.37467674 45.3125 52.5 C44.40048828 52.56703125 43.48847656 52.6340625 42.54882812 52.703125 C39.82688714 52.78230874 37.62505885 52.73698703 35 52 C32.601995 49.65097703 31.34581925 47.04604348 30 44 C29.47792969 43.04351562 28.95585938 42.08703125 28.41796875 41.1015625 C28.01191406 40.28429687 27.60585938 39.46703125 27.1875 38.625 C26.55908203 37.37589844 26.55908203 37.37589844 25.91796875 36.1015625 C25 34 25 34 25 32 C24.21625 32.78375 23.4325 33.5675 22.625 34.375 C21.08333333 35.91666667 19.54166667 37.45833333 18 39 C17.53513282 42.12196336 17.53513282 42.12196336 17.375 45.625 C17.25125 47.72875 17.1275 49.8325 17 52 C11.39 52 5.78 52 0 52 C0 34.84 0 17.68 0 0 Z " fill="#152F66" transform="translate(599,135)"/>
<path d="M0 0 C0.82951172 -0.020625 1.65902344 -0.04125 2.51367188 -0.0625 C9.43474808 -0.10620056 14.18569626 1.02617446 19.5 5.75 C23.6875 10.53571429 23.6875 10.53571429 23.6875 15.25 C12.17781171 17.79759899 12.17781171 17.79759899 7.6875 17.25 C6.6875 16.25 5.6875 15.25 4.6875 14.25 C0.62313145 13.17639321 -1.64456377 13.01055116 -5.625 14.4375 C-8.51914596 16.38936588 -9.14222454 17.06126777 -10.3125 20.25 C-10.66727675 23.58630326 -10.66727675 23.58630326 -10.625 27.1875 C-10.64175781 28.39277344 -10.65851563 29.59804687 -10.67578125 30.83984375 C-10.28687116 34.49058038 -9.50115037 36.34063183 -7.3125 39.25 C-2.91070043 42.09822325 1.76552695 41.20731892 6.6875 40.25 C7.3475 39.92 8.0075 39.59 8.6875 39.25 C9.0175 37.93 9.3475 36.61 9.6875 35.25 C6.3875 35.25 3.0875 35.25 -0.3125 35.25 C-0.3125 31.29 -0.3125 27.33 -0.3125 23.25 C7.9375 23.25 16.1875 23.25 24.6875 23.25 C25.8847771 44.5615323 25.8847771 44.5615323 22.70703125 49.04296875 C19.99980457 50.6361778 17.73701412 51.50732921 14.6875 52.25 C13.0478125 52.78753906 13.0478125 52.78753906 11.375 53.3359375 C7.22536938 54.36455357 3.50329024 54.59532374 -0.75 54.5625 C-1.50063721 54.55758545 -2.25127441 54.5526709 -3.0246582 54.54760742 C-11.39093768 54.36987297 -17.25700604 52.44311882 -23.3125 46.25 C-28.50615773 37.92023585 -29.06691907 29.9631455 -28.3125 20.25 C-26.39534261 12.34172577 -22.77424955 7.7933262 -16.25 3 C-10.95938794 -0.15185399 -6.01356464 0.03686476 0 0 Z " fill="#152F66" transform="translate(409.3125,133.75)"/>
<path d="M0 0 C14.19 0 28.38 0 43 0 C43 3.96 43 7.92 43 12 C34.42 12 25.84 12 17 12 C17 13.98 17 15.96 17 18 C24.92 18 32.84 18 41 18 C41 21.96 41 25.92 41 30 C33.08 30 25.16 30 17 30 C17 33.3 17 36.6 17 40 C25.91 40 34.82 40 44 40 C44 43.96 44 47.92 44 52 C29.48 52 14.96 52 0 52 C0 34.84 0 17.68 0 0 Z " fill="#152F66" transform="translate(547,135)"/>
<path d="M0 0 C14.19 0 28.38 0 43 0 C43 3.96 43 7.92 43 12 C34.42 12 25.84 12 17 12 C17 13.98 17 15.96 17 18 C24.92 18 32.84 18 41 18 C41 21.96 41 25.92 41 30 C33.08 30 25.16 30 17 30 C17 33.3 17 36.6 17 40 C25.91 40 34.82 40 44 40 C44 43.96 44 47.92 44 52 C29.48 52 14.96 52 0 52 C0 34.84 0 17.68 0 0 Z " fill="#152F66" transform="translate(167,135)"/>
<path d="M0 0 C6.6 0 13.2 0 20 0 C21.92079543 5.210286 23.84144035 10.420627 25.76171875 15.63110352 C26.41332592 17.39903869 27.06501671 19.16694305 27.71679688 20.93481445 C28.03197266 21.78970459 28.34714844 22.64459473 28.671875 23.52539062 C28.98354614 24.37076385 29.29521729 25.21613708 29.61633301 26.08712769 C30.53144768 28.57140052 31.44451899 31.0564176 32.35742188 33.54150391 C33.34368487 36.22484433 34.33966944 38.90352565 35.34570312 41.57958984 C35.89387695 43.0464624 35.89387695 43.0464624 36.453125 44.54296875 C36.91187012 45.75569458 36.91187012 45.75569458 37.37988281 46.99291992 C38 49 38 49 38 52 C32.39 52 26.78 52 21 52 C19 47 19 47 19 43 C13.06 43 7.12 43 1 43 C0.34 45.97 -0.32 48.94 -1 52 C-6.61 52 -12.22 52 -18 52 C-17.28524852 48.42624258 -16.55111108 45.48490526 -15.32592773 42.11791992 C-14.98565048 41.17732224 -14.64537323 40.23672455 -14.29478455 39.2676239 C-13.92809158 38.2653627 -13.56139862 37.2631015 -13.18359375 36.23046875 C-12.80767593 35.19432938 -12.43175812 34.15819 -12.04444885 33.09065247 C-10.84548844 29.7883707 -9.64156282 26.48792433 -8.4375 23.1875 C-7.62271871 20.9460828 -6.80826175 18.70454769 -5.99414062 16.46289062 C-3.99985161 10.97388603 -2.00110825 5.48652201 0 0 Z M9 16 C7.68 20.62 6.36 25.24 5 30 C8.3 30 11.6 30 15 30 C14.52188823 28.22888156 14.0424722 26.45811517 13.5625 24.6875 C13.29566406 23.70136719 13.02882813 22.71523437 12.75390625 21.69921875 C12.21920575 19.78482474 11.62855462 17.88566385 11 16 C10.34 16 9.68 16 9 16 Z " fill="#152F66" transform="translate(280,135)"/>
<path d="M0 0 C5.32125 -0.061875 10.6425 -0.12375 16.125 -0.1875 C18.62731201 -0.22846802 18.62731201 -0.22846802 21.18017578 -0.27026367 C22.51854735 -0.27903444 23.85692698 -0.28667698 25.1953125 -0.29296875 C25.877146 -0.30831665 26.55897949 -0.32366455 27.26147461 -0.33947754 C31.92253207 -0.34200249 35.04151385 0.55368321 39 3 C44.21351426 8.77713742 44.41062312 12.76582915 44.33984375 20.43359375 C43.86868495 25.37805336 42.54576454 28.52715607 39 32 C32.52508516 36.50428859 24.56897475 35.20094623 17 35 C17 40.61 17 46.22 17 52 C11.39 52 5.78 52 0 52 C0 34.84 0 17.68 0 0 Z M17 12 C17 15.63 17 19.26 17 23 C18.44375 22.87625 19.8875 22.7525 21.375 22.625 C22.18710938 22.55539063 22.99921875 22.48578125 23.8359375 22.4140625 C26.20334191 22.17107412 26.20334191 22.17107412 28 20 C28.58350505 17.54290625 28.58350505 17.54290625 28 15 C24.44035648 11.96383346 21.57588204 11.68075242 17 12 Z " fill="#152F66" transform="translate(115,135)"/>
<path d="M0 0 C2.32097858 2.55666294 2.95629464 3.57168746 3.3125 7.0625 C3 10 3 10 1 13 C-2.41510341 13.39710505 -4.8481889 13.04857955 -8.125 12 C-17.56918301 9.13561043 -27.23148143 10.89410638 -36 15 C-46.57074577 21.06839109 -53.5016127 29.41724504 -57.3515625 41 C-59.04147056 48.81836981 -58.49086443 57.17296174 -57 65 C-60 67 -60 67 -63 66.8125 C-66.16532244 65.95522517 -67.0059611 65.48271886 -69 63 C-73.12900014 51.36372688 -71.69963694 38.33604093 -66.78125 27.25390625 C-59.70191698 13.39021242 -49.94718895 3.2857082 -35.32421875 -2.2734375 C-24.56524668 -5.63674642 -9.90014162 -5.96216707 0 0 Z " fill="#DF1717" transform="translate(129,104)"/>
<path d="M0 0 C16.17 0 32.34 0 49 0 C49 3.96 49 7.92 49 12 C43.72 12 38.44 12 33 12 C33 25.2 33 38.4 33 52 C27.39 52 21.78 52 16 52 C16 38.8 16 25.6 16 12 C10.72 12 5.44 12 0 12 C0 8.04 0 4.08 0 0 Z " fill="#152F66" transform="translate(491,135)"/>
<path d="M0 0 C5.61 0 11.22 0 17 0 C17 12.87 17 25.74 17 39 C24.92 39 32.84 39 41 39 C41 43.29 41 47.58 41 52 C27.47 52 13.94 52 0 52 C0 34.84 0 17.68 0 0 Z " fill="#152F66" transform="translate(219,135)"/>
<path d="M0 0 C5.61 0 11.22 0 17 0 C17 17.16 17 34.32 17 52 C11.39 52 5.78 52 0 52 C0 34.84 0 17.68 0 0 Z " fill="#152F66" transform="translate(719,135)"/>
<path d="M0 0 C5.61 0 11.22 0 17 0 C17 17.16 17 34.32 17 52 C11.39 52 5.78 52 0 52 C0 34.84 0 17.68 0 0 Z " fill="#152F66" transform="translate(443,135)"/>
<path d="M0 0 C3.63 0 7.26 0 11 0 C12.32 3.3 13.64 6.6 15 10 C15.99 6.7 16.98 3.4 18 0 C21.63 0 25.26 0 29 0 C29 8.25 29 16.5 29 25 C26.69 25 24.38 25 22 25 C21.505 20.05 21.505 20.05 21 15 C20.01 18.3 19.02 21.6 18 25 C15.69 25 13.38 25 11 25 C10.01 21.37 9.02 17.74 8 14 C7.67 17.63 7.34 21.26 7 25 C4.69 25 2.38 25 0 25 C0 16.75 0 8.5 0 0 Z " fill="#152F66" transform="translate(603,204)"/>
<path d="M0 0 C7.59 0 15.18 0 23 0 C23.99 2.97 24.98 5.94 26 9 C26.99 6.03 27.98 3.06 29 0 C31.64 0 34.28 0 37 0 C35.9342724 3.40161199 34.84435483 6.79500004 33.75 10.1875 C33.44964844 11.14720703 33.14929688 12.10691406 32.83984375 13.09570312 C29.70330989 22.73887636 29.70330989 22.73887636 26 26 C23.421875 26.48828125 23.421875 26.48828125 20.75 26.3125 C19.85796875 26.26738281 18.9659375 26.22226563 18.046875 26.17578125 C17.37140625 26.11777344 16.6959375 26.05976563 16 26 C16 24.02 16 22.04 16 20 C17.65 20 19.3 20 21 20 C20.22383756 15.44106691 18.64782114 11.53831427 16.83984375 7.3046875 C16 5 16 5 16 2 C15.34 2 14.68 2 14 2 C13.67 3.32 13.34 4.64 13 6 C11.68 6.33 10.36 6.66 9 7 C8.67 10.96 8.34 14.92 8 19 C5.36 19 2.72 19 0 19 C0 12.73 0 6.46 0 0 Z " fill="#152F66" transform="translate(766,210)"/>
<path d="M0 0 C4.145625 -0.0309375 4.145625 -0.0309375 8.375 -0.0625 C9.24431152 -0.071604 10.11362305 -0.08070801 11.00927734 -0.09008789 C16.77777778 -0.11111111 16.77777778 -0.11111111 19 1 C19.66 0.67 20.32 0.34 21 0 C27.22804809 -0.45294895 27.22804809 -0.45294895 29.7109375 1.00390625 C31.7602846 4.17728919 31.3116371 7.54296211 31.1875 11.1875 C31.16719727 12.31188477 31.16719727 12.31188477 31.14648438 13.45898438 C31.11118539 15.30629767 31.05737917 17.15324066 31 19 C28.69 19 26.38 19 24 19 C23.95101563 18.14535156 23.90203125 17.29070312 23.8515625 16.41015625 C23.77679688 15.30542969 23.70203125 14.20070312 23.625 13.0625 C23.55539062 11.96035156 23.48578125 10.85820312 23.4140625 9.72265625 C23.27742188 8.82417969 23.14078125 7.92570313 23 7 C22.34 6.67 21.68 6.34 21 6 C19.71553081 8.56893838 19.67022856 10.76576337 19.4375 13.625 C19.35371094 14.62789062 19.26992188 15.63078125 19.18359375 16.6640625 C19.09271484 17.82035156 19.09271484 17.82035156 19 19 C16.69 19 14.38 19 12 19 C11.95101563 18.14535156 11.90203125 17.29070312 11.8515625 16.41015625 C11.77679688 15.30542969 11.70203125 14.20070312 11.625 13.0625 C11.55539062 11.96035156 11.48578125 10.85820312 11.4140625 9.72265625 C11.27742188 8.82417969 11.14078125 7.92570313 11 7 C10.34 6.67 9.68 6.34 9 6 C8.67 10.29 8.34 14.58 8 19 C5.36 19 2.72 19 0 19 C0 12.73 0 6.46 0 0 Z " fill="#152F66" transform="translate(460,210)"/>
<path d="M0 0 C7.26 0 14.52 0 22 0 C22 1.98 22 3.96 22 6 C17.71 6 13.42 6 9 6 C9 6.66 9 7.32 9 8 C12.96 8 16.92 8 21 8 C21 9.98 21 11.96 21 14 C17.04 14 13.08 14 9 14 C9 15.65 9 17.3 9 19 C13.29 19 17.58 19 22 19 C22 20.98 22 22.96 22 25 C14.74 25 7.48 25 0 25 C0 16.75 0 8.5 0 0 Z " fill="#152F66" transform="translate(352,204)"/>
<path d="M0 0 C2.7225 0.103125 5.445 0.20625 8.25 0.3125 C8.25 8.8925 8.25 17.4725 8.25 26.3125 C5.61 26.3125 2.97 26.3125 0.25 26.3125 C-0.08 24.0025 -0.41 21.6925 -0.75 19.3125 C-1.9875 19.415625 -3.225 19.51875 -4.5 19.625 C-7.79626073 19.60162226 -8.53068715 19.48246746 -11.25 17.375 C-13.21906255 13.35483063 -13.77330042 9.7066724 -12.75 5.3125 C-9.56961678 -0.60468668 -6.06390637 -0.32431911 0 0 Z M-3.75 5.3125 C-5.16577477 6.49674326 -5.16577477 6.49674326 -4.8125 9.875 C-4.791875 11.009375 -4.77125 12.14375 -4.75 13.3125 C-3.43 13.3125 -2.11 13.3125 -0.75 13.3125 C0.54633621 12.24604885 0.54633621 12.24604885 0.3125 9.75 C0.291875 8.945625 0.27125 8.14125 0.25 7.3125 C-1.07 6.6525 -2.39 5.9925 -3.75 5.3125 Z " fill="#152F66" transform="translate(388.75,209.6875)"/>
<path d="M0 0 C3.83625 -0.12375 3.83625 -0.12375 7.75 -0.25 C8.54889648 -0.28641602 9.34779297 -0.32283203 10.17089844 -0.36035156 C13.65686834 -0.4147924 15.6196025 -0.28000643 18.45703125 1.80859375 C20.65923595 4.93628194 20.93539018 7.18802039 21 11 C20.27348007 13.62066119 19.31120176 15.5718486 18 18 C15.04335481 19.4783226 12.25770263 19.06032783 9 19 C8.67 21.31 8.34 23.62 8 26 C5.36 26 2.72 26 0 26 C0 17.42 0 8.84 0 0 Z M9 5 C7.58422523 6.18424326 7.58422523 6.18424326 7.9375 9.5625 C7.958125 10.696875 7.97875 11.83125 8 13 C8.99 13.33 9.98 13.66 11 14 C13.33391203 11.21885944 13.33391203 11.21885944 12.625 8.3125 C12.41875 7.549375 12.2125 6.78625 12 6 C11.01 5.67 10.02 5.34 9 5 Z " fill="#152F66" transform="translate(436,210)"/>
<path d="M0 0 C2.31 0 4.62 0 7 0 C7 2.31 7 4.62 7 7 C7.66 6.67 8.32 6.34 9 6 C14.88702929 5.43933054 14.88702929 5.43933054 17 6 C20.31402408 9.9307595 20.32784137 13.30699117 20.1875 18.3125 C20.16042969 19.56675781 20.13335938 20.82101563 20.10546875 22.11328125 C20.07066406 23.06589844 20.03585937 24.01851562 20 25 C17.36 25 14.72 25 12 25 C11.67 20.71 11.34 16.42 11 12 C10.34 12 9.68 12 9 12 C8.34 16.29 7.68 20.58 7 25 C4.69 25 2.38 25 0 25 C0 16.75 0 8.5 0 0 Z " fill="#152F66" transform="translate(683,204)"/>
<path d="M0 0 C1.69962891 0.05994141 1.69962891 0.05994141 3.43359375 0.12109375 C4.56925781 0.14300781 5.70492187 0.16492188 6.875 0.1875 C9.87109375 0.55859375 9.87109375 0.55859375 12.87109375 2.55859375 C14.02680079 6.02571486 14.19944668 9.10008935 14.43359375 12.74609375 C14.55927734 14.65455078 14.55927734 14.65455078 14.6875 16.6015625 C14.74808594 17.57738281 14.80867187 18.55320313 14.87109375 19.55859375 C11.20442708 19.55859375 7.53776042 19.55859375 3.87109375 19.55859375 C3.23171875 19.58179688 2.59234375 19.605 1.93359375 19.62890625 C1.25296875 19.64695313 0.57234375 19.665 -0.12890625 19.68359375 C-0.80953125 19.70679688 -1.49015625 19.73 -2.19140625 19.75390625 C-4.12890625 19.55859375 -4.12890625 19.55859375 -7.12890625 17.55859375 C-7.44140625 14.55859375 -7.44140625 14.55859375 -7.12890625 11.55859375 C-4.81595805 9.24564555 -3.6498575 9.062784 -0.50390625 8.43359375 C0.31335938 8.26601562 1.130625 8.0984375 1.97265625 7.92578125 C2.59914063 7.80460938 3.225625 7.6834375 3.87109375 7.55859375 C1.84983091 7.55859375 -0.17182499 7.60116186 -2.19140625 7.68359375 C-5.12890625 7.55859375 -5.12890625 7.55859375 -7.12890625 5.55859375 C-4.97425162 2.207497 -4.0139833 0.71660376 0 0 Z M0.87109375 12.55859375 C0.87109375 13.21859375 0.87109375 13.87859375 0.87109375 14.55859375 C2.52109375 14.22859375 4.17109375 13.89859375 5.87109375 13.55859375 C5.87109375 13.22859375 5.87109375 12.89859375 5.87109375 12.55859375 C4.22109375 12.55859375 2.57109375 12.55859375 0.87109375 12.55859375 Z " fill="#152F66" transform="translate(643.12890625,209.44140625)"/>
<path d="M0 0 C8.25 0 16.5 0 25 0 C25 1.98 25 3.96 25 6 C22.36 6 19.72 6 17 6 C17 12.27 17 18.54 17 25 C14.03 25 11.06 25 8 25 C8 18.73 8 12.46 8 6 C5.36 6 2.72 6 0 6 C0 4.02 0 2.04 0 0 Z " fill="#152F66" transform="translate(223,204)"/>
<path d="M0 0 C3.0625 1.5625 3.0625 1.5625 5 4 C5.8125 7.75 5.8125 7.75 6 11 C1.38 11 -3.24 11 -8 11 C-8 11.66 -8 12.32 -8 13 C-3.71 13 0.58 13 5 13 C3 17 3 17 0 19 C-5.25075157 19.77216935 -9.60099744 19.8503741 -14.1875 17.0625 C-16.61131541 12.96708776 -16.96526828 9.6524192 -16 5 C-11.72738497 -0.69682004 -6.69230313 -0.73657424 0 0 Z M-7 5 C-7.33 5.66 -7.66 6.32 -8 7 C-6.02 7 -4.04 7 -2 7 C-2.66 6.34 -3.32 5.68 -4 5 C-4.99 5 -5.98 5 -7 5 Z " fill="#152F66" transform="translate(757,210)"/>
<path d="M0 0 C3.0625 1.5625 3.0625 1.5625 5 4 C5.8125 7.75 5.8125 7.75 6 11 C1.38 11 -3.24 11 -8 11 C-8 11.66 -8 12.32 -8 13 C-3.71 13 0.58 13 5 13 C3 17 3 17 0 19 C-5.25075157 19.77216935 -9.60099744 19.8503741 -14.1875 17.0625 C-16.61131541 12.96708776 -16.96526828 9.6524192 -16 5 C-11.72738497 -0.69682004 -6.69230313 -0.73657424 0 0 Z M-7 5 C-7.33 5.66 -7.66 6.32 -8 7 C-6.02 7 -4.04 7 -2 7 C-2.66 6.34 -3.32 5.68 -4 5 C-4.99 5 -5.98 5 -7 5 Z " fill="#152F66" transform="translate(510,210)"/>
<path d="M0 0 C2.31 0 4.62 0 7 0 C7.33 3.96 7.66 7.92 8 12 C8.99 12 9.98 12 11 12 C11.33 8.04 11.66 4.08 12 0 C14.64 0 17.28 0 20 0 C20 6.27 20 12.54 20 19 C15.8853125 19.0928125 15.8853125 19.0928125 11.6875 19.1875 C10.82729248 19.21481201 9.96708496 19.24212402 9.08081055 19.27026367 C8.39801025 19.27775635 7.71520996 19.28524902 7.01171875 19.29296875 C6.31522217 19.3086792 5.61872559 19.32438965 4.90112305 19.34057617 C2.37098035 18.88731445 1.5134079 18.05207851 0 16 C-0.21714241 13.18872957 -0.28284276 10.6116655 -0.1875 7.8125 C-0.17396484 7.06291016 -0.16042969 6.31332031 -0.14648438 5.54101562 C-0.11118539 3.69370233 -0.05737917 1.84675934 0 0 Z " fill="#152F66" transform="translate(401,210)"/>
<path d="M0 0 C2.743125 -0.103125 5.48625 -0.20625 8.3125 -0.3125 C9.17270752 -0.35802002 10.03291504 -0.40354004 10.91918945 -0.45043945 C13.03304147 -0.48909987 14.92815627 -0.4322868 17 0 C19.76422846 2.80675505 19.97054859 4.64304892 20.29296875 8.55078125 C20.25816406 9.79214844 20.22335937 11.03351563 20.1875 12.3125 C20.16042969 13.56675781 20.13335938 14.82101563 20.10546875 16.11328125 C20.07066406 17.06589844 20.03585937 18.01851562 20 19 C17.36 19 14.72 19 12 19 C11.67 14.71 11.34 10.42 11 6 C10.34 6 9.68 6 9 6 C8.34 10.29 7.68 14.58 7 19 C4.69 19 2.38 19 0 19 C0 12.73 0 6.46 0 0 Z " fill="#152F66" transform="translate(718,210)"/>
<path d="M0 0 C2.743125 -0.103125 5.48625 -0.20625 8.3125 -0.3125 C9.17270752 -0.35802002 10.03291504 -0.40354004 10.91918945 -0.45043945 C13.03304147 -0.48909987 14.92815627 -0.4322868 17 0 C19.76422846 2.80675505 19.97054859 4.64304892 20.29296875 8.55078125 C20.25816406 9.79214844 20.22335937 11.03351563 20.1875 12.3125 C20.16042969 13.56675781 20.13335938 14.82101563 20.10546875 16.11328125 C20.07066406 17.06589844 20.03585937 18.01851562 20 19 C17.36 19 14.72 19 12 19 C11.67 14.71 11.34 10.42 11 6 C10.34 6 9.68 6 9 6 C8.34 10.29 7.68 14.58 7 19 C4.69 19 2.38 19 0 19 C0 12.73 0 6.46 0 0 Z " fill="#152F66" transform="translate(519,210)"/>
<path d="M0 0 C3.13529459 2.23949613 4.5166576 3.85206181 6 7.375 C6 11.13887306 4.74270569 13.70130708 3 17 C-1.27019466 19.84679644 -4.99134341 19.72994375 -10 19 C-13.11765092 17.73823951 -13.81914666 16.81215299 -16 14 C-16.84638023 10.79418996 -16.84638023 8.20581004 -16 5 C-11.73264124 -0.50264682 -6.75318111 -1.40691273 0 0 Z M-6 5 C-8.28728734 6.83883881 -8.28728734 6.83883881 -8.125 9.625 C-8.08375 10.40875 -8.0425 11.1925 -8 12 C-6.02 12.99 -6.02 12.99 -4 14 C-1.66608797 11.21885944 -1.66608797 11.21885944 -2.375 8.3125 C-2.58125 7.549375 -2.7875 6.78625 -3 6 C-3.99 5.67 -4.98 5.34 -6 5 Z " fill="#152F66" transform="translate(287,210)"/>
<path d="M0 0 C3.13529459 2.23949613 4.5166576 3.85206181 6 7.375 C6 11.13887306 4.74270569 13.70130708 3 17 C-1.27019466 19.84679644 -4.99134341 19.72994375 -10 19 C-13.11765092 17.73823951 -13.81914666 16.81215299 -16 14 C-16.84638023 10.79418996 -16.84638023 8.20581004 -16 5 C-11.73264124 -0.50264682 -6.75318111 -1.40691273 0 0 Z M-6 5 C-8.28728734 6.83883881 -8.28728734 6.83883881 -8.125 9.625 C-8.08375 10.40875 -8.0425 11.1925 -8 12 C-6.02 12.99 -6.02 12.99 -4 14 C-1.66608797 11.21885944 -1.66608797 11.21885944 -2.375 8.3125 C-2.58125 7.549375 -2.7875 6.78625 -3 6 C-3.99 5.67 -4.98 5.34 -6 5 Z " fill="#152F66" transform="translate(263,210)"/>
<path d="M0 0 C3.1875 2 3.1875 2 5 4 C4.67 4.99 4.34 5.98 4 7 C0.44326383 7.08083491 -2.56815235 6.88973828 -6 6 C-7.29633621 7.06645115 -7.29633621 7.06645115 -7.0625 9.5625 C-7.041875 10.366875 -7.02125 11.17125 -7 12 C-5.68 12 -4.36 12 -3 12 C-2.67 11.67 -2.34 11.34 -2 11 C0.9375 10.8125 0.9375 10.8125 4 11 C4.66 11.66 5.32 12.32 6 13 C2.25 17.875 2.25 17.875 0 19 C-5.28152224 19.59534067 -9.56976027 19.8693614 -14.1875 17.0625 C-16.6415706 12.91596692 -17.01140892 9.70007676 -16 5 C-12.31162071 -1.23208914 -6.57933902 -1.11464064 0 0 Z " fill="#152F66" transform="translate(675,210)"/>
<path d="M0 0 C2.6875 1.9375 2.6875 1.9375 4 4 C4 4.33 4 4.66 4 5 C0.37 5 -3.26 5 -7 5 C-5.39125 5.37125 -3.7825 5.7425 -2.125 6.125 C0.640625 6.93359375 0.640625 6.93359375 3 8 C4.625 11.1875 4.625 11.1875 5 14 C3.34835182 16.35949739 2.43048751 17.55173012 0 19 C-4.07231893 19.67223819 -7.94641834 19.80848602 -12 19 C-14.37109375 16.96484375 -14.37109375 16.96484375 -16 15 C-14 13 -14 13 -10.5625 12.8125 C-7 13 -7 13 -4 14 C-3.67 13.34 -3.34 12.68 -3 12 C-3.61488281 11.96261719 -4.22976563 11.92523438 -4.86328125 11.88671875 C-5.67152344 11.82097656 -6.47976563 11.75523437 -7.3125 11.6875 C-8.11300781 11.62949219 -8.91351562 11.57148438 -9.73828125 11.51171875 C-12.41139135 10.90692182 -13.39685816 10.20366728 -15 8 C-14.875 4.9375 -14.875 4.9375 -14 2 C-9.56655315 -0.95563123 -5.20245929 -0.66198958 0 0 Z " fill="#152F66" transform="translate(572,210)"/>
<path d="M0 0 C2.6875 1.9375 2.6875 1.9375 4 4 C4 4.33 4 4.66 4 5 C0.37 5 -3.26 5 -7 5 C-5.39125 5.37125 -3.7825 5.7425 -2.125 6.125 C0.640625 6.93359375 0.640625 6.93359375 3 8 C4.625 11.1875 4.625 11.1875 5 14 C3.34835182 16.35949739 2.43048751 17.55173012 0 19 C-4.07231893 19.67223819 -7.94641834 19.80848602 -12 19 C-14.37109375 16.96484375 -14.37109375 16.96484375 -16 15 C-14 13 -14 13 -10.5625 12.8125 C-7 13 -7 13 -4 14 C-3.67 13.34 -3.34 12.68 -3 12 C-3.61488281 11.96261719 -4.22976563 11.92523438 -4.86328125 11.88671875 C-5.67152344 11.82097656 -6.47976563 11.75523437 -7.3125 11.6875 C-8.11300781 11.62949219 -8.91351563 11.57148438 -9.73828125 11.51171875 C-12.41139135 10.90692182 -13.39685816 10.20366728 -15 8 C-14.875 4.9375 -14.875 4.9375 -14 2 C-9.56655315 -0.95563123 -5.20245929 -0.66198958 0 0 Z " fill="#152F66" transform="translate(321,210)"/>
<path d="M0 0 C0 1.98 0 3.96 0 6 C1.32 6 2.64 6 4 6 C4 7.65 4 9.3 4 11 C2.68 11 1.36 11 0 11 C0 13.97 0 16.94 0 20 C1.32 19.67 2.64 19.34 4 19 C4 20.98 4 22.96 4 25 C2.37581255 25.08090971 0.75048255 25.13914995 -0.875 25.1875 C-1.77992188 25.22230469 -2.68484375 25.25710937 -3.6171875 25.29296875 C-4.79667969 25.14794922 -4.79667969 25.14794922 -6 25 C-8.28062828 21.57905758 -8.21925007 20.31812778 -8.125 16.3125 C-8.10695313 15.31863281 -8.08890625 14.32476562 -8.0703125 13.30078125 C-8.04710937 12.54152344 -8.02390625 11.78226563 -8 11 C-8.99 11 -9.98 11 -11 11 C-11 9.35 -11 7.7 -11 6 C-10.01 6 -9.02 6 -8 6 C-7.9175 5.38125 -7.835 4.7625 -7.75 4.125 C-7 2 -7 2 -5.125 0.75 C-3 0 -3 0 0 0 Z " fill="#152F66" transform="translate(551,204)"/>
<path d="M0 0 C2.64 0 5.28 0 8 0 C8 8.25 8 16.5 8 25 C5.36 25 2.72 25 0 25 C0 16.75 0 8.5 0 0 Z " fill="#152F66" transform="translate(295,204)"/>
<path d="M0 0 C2.64 0 5.28 0 8 0 C8 6.27 8 12.54 8 19 C5.36 19 2.72 19 0 19 C0 12.73 0 6.46 0 0 Z " fill="#152F66" transform="translate(707,210)"/>
<path d="M0 0 C2.64 0 5.28 0 8 0 C8 6.27 8 12.54 8 19 C5.36 19 2.72 19 0 19 C0 12.73 0 6.46 0 0 Z " fill="#152F66" transform="translate(425,210)"/>
<path d="M0 0 C2.64 0 5.28 0 8 0 C8.63019694 8.03501094 8.63019694 8.03501094 6 12.0625 C5.34 12.701875 4.68 13.34125 4 14 C2.68 13.67 1.36 13.34 0 13 C0 10 0 10 1.5 8.3125 C1.995 7.879375 2.49 7.44625 3 7 C2.01 7 1.02 7 0 7 C0 4.69 0 2.38 0 0 Z " fill="#152F66" transform="translate(580,222)"/>
<path d="M0 0 C2.64 0 5.28 0 8 0 C8.63019694 8.03501094 8.63019694 8.03501094 6 12.0625 C5.34 12.701875 4.68 13.34125 4 14 C2.68 13.67 1.36 13.34 0 13 C0 10 0 10 1.5 8.3125 C1.995 7.879375 2.49 7.44625 3 7 C2.01 7 1.02 7 0 7 C0 4.69 0 2.38 0 0 Z " fill="#152F66" transform="translate(328,222)"/>
<path d="M0 0 C2.64 0 5.28 0 8 0 C8 1.32 8 2.64 8 4 C5.36 4 2.72 4 0 4 C0 2.68 0 1.36 0 0 Z " fill="#152F66" transform="translate(707,204)"/>
<path d="M0 0 C2.64 0 5.28 0 8 0 C8 1.32 8 2.64 8 4 C5.36 4 2.72 4 0 4 C0 2.68 0 1.36 0 0 Z " fill="#152F66" transform="translate(425,204)"/>
</svg>
