<svg width="118" height="40" viewBox="0 0 118 40" fill="none" xmlns="http://www.w3.org/2000/svg">
<g clip-path="url(#clip0_7_31011)">
<path d="M22.6114 12.9193C21.85 11.5647 20.7463 10.3919 19.4183 9.52688C17.2374 8.11066 14.425 7.66791 11.7011 8.31298C9.14844 8.917 6.82593 10.4329 5.16446 12.5821C4.98444 12.8167 4.80738 13.0601 4.64212 13.3064C3.50594 15.0158 2.74456 17.0566 2.42289 19.241C2.00088 17.6899 1.55822 14.7021 3.05443 11.5618C3.81286 9.97256 5.36809 7.76467 8.47854 6.28102C10.1784 5.46882 12.0907 5.06712 14.0178 5.1199C14.7644 5.1199 16.6826 5.15802 18.3647 5.49521C19.1173 5.64768 19.495 5.75324 19.8432 5.85586C19.8875 5.87052 20.0705 5.93503 20.2977 6.0142C21.0591 6.282 21.4604 6.38267 21.5017 6.31621L21.9533 5.6037L21.8264 5.54506C21.4722 5.37793 21.1092 5.22546 20.7463 5.08472L20.2505 4.89706C20.218 4.88533 20.156 4.86187 20.0734 4.83255C19.9613 4.79444 19.8668 4.76511 19.8019 4.74459C14.9533 3.27853 10.9102 4.10539 10.8689 4.11418C9.8272 4.33409 7.05907 4.92052 4.51522 7.1284C3.46758 8.03736 2.48486 9.23367 1.75004 10.5003C1.2454 11.3683 0.200715 13.1715 0.0236492 15.5993C-0.159319 18.0975 0.613869 20.754 2.14254 22.8915C2.33141 29.0431 5.29431 35.0217 10.0751 38.8921L10.3791 39.1384C10.8247 39.4961 11.2968 39.6867 11.7454 39.6867C12.194 39.6867 12.5747 39.5049 12.8314 39.1911C13.0734 38.8921 13.1737 38.4933 13.1059 38.0945C13.0262 37.6371 12.737 37.1973 12.2678 36.8191L11.9638 36.5786C8.70873 33.9778 6.339 30.128 5.43301 25.9731C7.46042 27.2457 9.89507 27.9435 12.3179 27.9435H12.4802C15.4048 27.9113 18.2644 26.8586 20.3183 25.0554C22.57 23.085 23.8803 20.2174 23.8183 17.385C23.7977 15.8368 23.3786 14.2916 22.6084 12.9193H22.6114ZM18.9107 23.4896C17.2492 24.9967 14.8913 25.8998 12.4478 25.9673C9.72096 26.0347 7.02956 25.0906 5.06117 23.3753C5.02576 22.8739 5.011 22.3608 5.01986 21.8477C5.04937 19.4023 5.58942 17.1504 6.57509 15.3383C7.66109 13.3357 9.37863 11.7641 11.285 11.0281C12.1586 10.6909 13.0941 10.5179 14.0679 10.5179C15.5199 10.5179 16.9098 10.902 18.0873 11.6292C19.1025 12.245 19.9583 13.1011 20.5633 14.101C21.1771 15.1184 21.5283 16.2766 21.5814 17.4465C21.664 19.6456 20.6666 21.9034 18.9107 23.4926V23.4896Z" fill="#32A4EA"/>
<path fill-rule="evenodd" clip-rule="evenodd" d="M31.0544 5.85587L30.9629 5.84414L30.9836 5.8412L17.2934 0.671875L19.6632 3.7682L27.9617 5.67994L19.8934 4.81203L18.1286 7.31899L21.4132 7.23103L21.4102 7.2281L21.9886 8.14878L31.0544 5.85587Z" fill="#B5D823"/>
<path d="M49.8234 15.5378C49.4958 15.1097 49.0974 14.749 48.6282 14.4558C48.159 14.1626 47.616 13.9427 47.0021 13.7902C46.3883 13.6407 45.7243 13.5644 45.0072 13.5644H37.4524V30.8786H40.25V24.2286H44.9836C46.164 24.2286 47.191 24.0263 48.0675 23.6216C48.944 23.217 49.6257 22.6218 50.1096 21.8272C50.5966 21.0355 50.8386 20.0532 50.8386 18.8833C50.8386 18.2031 50.75 17.5815 50.5759 17.0185C50.4018 16.4555 50.148 15.9629 49.8234 15.5348V15.5378ZM47.8757 19.3613C47.8757 20.1529 47.616 20.7863 47.0995 21.2613C46.5831 21.7363 45.8364 21.9738 44.8655 21.9738H40.253V15.8691H44.8655C45.8364 15.8691 46.5831 16.1037 47.0995 16.5699C47.616 17.0361 47.8757 17.6811 47.8757 18.5051V19.3613Z" fill="#0D2056"/>
<path d="M57.75 13.5644L51.1514 30.8786H54.0198L55.5131 26.9349H63.7378L65.2311 30.8786H68.1231L61.5245 13.5644H57.7471H57.75ZM56.3483 24.727L59.0633 17.5551L59.5177 15.7489H59.7096L60.1876 17.5551L62.9026 24.727H56.3483Z" fill="#0D2056"/>
<path d="M83.578 15.5378C83.2505 15.1097 82.8521 14.749 82.3828 14.4558C81.9136 14.1626 81.3706 13.9427 80.7568 13.7902C80.143 13.6407 79.479 13.5644 78.7618 13.5644H71.207V30.8786H74.0047V24.2286H78.7382C79.9187 24.2286 80.9457 24.0263 81.8221 23.6216C82.6986 23.217 83.3803 22.6218 83.8643 21.8272C84.3512 21.0355 84.5932 20.0532 84.5932 18.8833C84.5932 18.2031 84.5047 17.5815 84.3306 17.0185C84.1565 16.4555 83.9027 15.9629 83.578 15.5348V15.5378ZM81.6303 19.3613C81.6303 20.1529 81.3706 20.7863 80.8542 21.2613C80.3377 21.7363 79.5911 21.9738 78.6202 21.9738H74.0076V15.8691H78.6202C79.5911 15.8691 80.3377 16.1037 80.8542 16.5699C81.3706 17.0361 81.6303 17.6811 81.6303 18.5051V19.3613Z" fill="#0D2056"/>
<path d="M90.1324 23.1377H97.1177V20.9298H90.1324V15.8924H100.004V13.5672H87.3407V30.8785H100.051V28.5533H90.1324V23.1377Z" fill="#0D2056"/>
<path d="M116.613 26.3748C116.613 23.604 115.111 22.8182 114.084 22.6716V22.6217C114.632 22.4253 116.899 21.5662 116.899 18.2089C116.899 15.2416 114.99 13.4764 111.268 13.4764H103.135V30.9841H106.116V23.7741H110.504C113.245 23.7741 113.892 25.1961 113.892 28.4097C113.892 29.2689 113.892 30.2247 114.346 30.9841H117.542C116.899 30.2716 116.613 28.4097 116.613 26.3748ZM111.009 21.446H106.119V15.9775H110.961C112.511 15.9775 113.918 16.4203 113.918 18.6516C113.918 20.4901 112.891 21.446 111.009 21.446Z" fill="#0D2056"/>
</g>
<defs>
<clipPath id="clip0_7_31011">
<rect width="117.542" height="39.0119" fill="white" transform="translate(0 0.671875)"/>
</clipPath>
</defs>
</svg>
