<svg width="85" height="27" viewBox="0 0 85 27" fill="none" xmlns="http://www.w3.org/2000/svg">
<path d="M32.3 0.506142L21.25 26.8253H13.94L8.5 5.90493C8.16 4.55523 7.82 4.21782 6.8 3.54297C5.1 2.69941 2.38 1.85584 0 1.3497L0.169984 0.506142H11.9C13.43 0.506142 14.79 1.51843 15.13 3.20555L18.02 18.3896L25.16 0.506142H32.3ZM60.69 18.2209C60.69 11.3037 51 10.9663 51.17 7.76077C51.17 6.7485 52.02 5.73622 54.06 5.56751C55.08 5.3988 57.8 5.39879 60.86 6.74849L62.05 1.18098C60.35 0.506132 58.31 0 55.59 0C48.79 0 44.03 3.54295 44.03 8.77303C44.03 12.4847 47.43 14.678 49.98 15.859C52.7 17.2087 53.55 18.0522 53.55 19.0645C53.55 20.7516 51.34 21.5952 49.47 21.5952C46.07 21.5952 44.03 20.7516 42.5 19.908L41.31 25.6443C42.84 26.3191 45.9 26.994 48.96 26.994C55.93 27.1627 60.69 23.7884 60.69 18.2209ZM78.71 26.8253H85L79.39 0.506142H73.61C72.25 0.506142 71.23 1.34971 70.72 2.36199L60.52 26.6565H67.66L69.02 22.7762H77.86L78.71 26.8253ZM71.06 17.5461L74.63 7.76077L76.67 17.5461H71.06ZM42.16 0.506142L36.55 26.8253H29.75L35.36 0.506142H42.16Z" fill="white"/>
</svg>
